<?xml version="1.0" encoding="UTF-8"?>
<!DOCTYPE svg PUBLIC "-//W3C//DTD SVG 1.1//EN" "http://www.w3.org/Graphics/SVG/1.1/DTD/svg11.dtd">
<svg xmlns="http://www.w3.org/2000/svg" version="1.1" width="200px" height="200px" style="shape-rendering:geometricPrecision; text-rendering:geometricPrecision; image-rendering:optimizeQuality; fill-rule:evenodd; clip-rule:evenodd" xmlns:xlink="http://www.w3.org/1999/xlink">
<g><path style="opacity:0.873" fill="#000000" d="M 123.5,26.5 C 125.229,27.1175 126.729,28.1175 128,29.5C 128.5,36.8258 128.666,44.1591 128.5,51.5C 155.705,53.2109 173.872,66.8776 183,92.5C 186.952,104.21 188.285,116.21 187,128.5C 184,131.167 181,131.167 178,128.5C 172.443,118.555 164.943,110.389 155.5,104C 146.944,100.018 137.944,98.1849 128.5,98.5C 128.666,105.175 128.5,111.842 128,118.5C 126.519,121.08 124.352,121.913 121.5,121C 104.702,106.537 88.2017,91.7036 72,76.5C 70.8238,72.7399 71.9904,69.9066 75.5,68C 91.4202,53.9016 107.42,40.0682 123.5,26.5 Z M 177.5,111.5 C 164.444,95.5732 147.444,87.9066 126.5,88.5C 124.074,88.4035 121.907,89.0702 120,90.5C 119.667,95.8333 119.333,101.167 119,106.5C 107.017,96.0183 95.1841,85.3517 83.5,74.5C 95.387,63.6254 107.22,52.6254 119,41.5C 119.333,46.8333 119.667,52.1667 120,57.5C 120.5,58 121,58.5 121.5,59C 155.191,60.5253 173.858,78.0253 177.5,111.5 Z"/></g>
<g><path style="opacity:0.945" fill="#000000" d="M 30.5,59.5 C 38.5069,59.3336 46.5069,59.5003 54.5,60C 58.296,61.3357 59.296,63.8357 57.5,67.5C 46.7927,68.0958 36.1261,68.9291 25.5,70C 23.3333,70.8333 21.8333,72.3333 21,74.5C 19.3696,100.784 19.0362,127.118 20,153.5C 20.5,159.333 23.6667,162.5 29.5,163C 47.6667,163.167 65.8333,163.333 84,163.5C 103.549,163.642 123.049,163.142 142.5,162C 145.381,160.749 147.214,158.583 148,155.5C 148.333,141.833 148.667,128.167 149,114.5C 152.156,111.601 154.822,111.935 157,115.5C 157.667,129.167 157.667,142.833 157,156.5C 155.684,163.815 151.517,168.648 144.5,171C 104.167,171.667 63.8333,171.667 23.5,171C 17.6667,169.167 13.8333,165.333 12,159.5C 11.3333,130.5 11.3333,101.5 12,72.5C 15.5346,64.3238 21.7012,59.9904 30.5,59.5 Z"/></g>
</svg>
