<?xml version="1.0" encoding="UTF-8"?>
<!DOCTYPE svg PUBLIC "-//W3C//DTD SVG 1.1//EN" "http://www.w3.org/Graphics/SVG/1.1/DTD/svg11.dtd">
<svg xmlns="http://www.w3.org/2000/svg" version="1.1" width="500px" height="500px" style="shape-rendering:geometricPrecision; text-rendering:geometricPrecision; image-rendering:optimizeQuality; fill-rule:evenodd; clip-rule:evenodd" xmlns:xlink="http://www.w3.org/1999/xlink">
<g><path style="opacity:0.988" fill="#f58f34" d="M 234.5,-0.5 C 240.5,-0.5 246.5,-0.5 252.5,-0.5C 277.693,8.54489 287.193,26.2116 281,52.5C 269.457,75.7971 251.291,83.2971 226.5,75C 205.414,62.078 199.247,43.9113 208,20.5C 214.092,9.89385 222.926,2.89385 234.5,-0.5 Z"/></g>
<g><path style="opacity:1" fill="#f9ba34" d="M 237.5,8.5 C 262.523,8.35429 274.357,20.6876 273,45.5C 267.577,62.91 255.744,70.7433 237.5,69C 219.183,63.2199 211.35,50.7199 214,31.5C 217.779,19.5531 225.612,11.8864 237.5,8.5 Z"/></g>
<g><path style="opacity:1" fill="#f69134" d="M 237.5,13.5 C 241.068,13.7593 242.401,15.7593 241.5,19.5C 242.5,19.5 243.5,19.5 244.5,19.5C 244.34,17.8008 244.506,16.1341 245,14.5C 246.049,13.4829 247.216,13.3162 248.5,14C 249.113,16.1474 249.779,18.314 250.5,20.5C 253.656,22.3201 255.656,24.9867 256.5,28.5C 256.566,30.2664 255.732,31.2664 254,31.5C 251.929,30.2247 250.429,28.3914 249.5,26C 245.961,24.4961 242.295,24.1628 238.5,25C 234.977,27.7936 234.644,30.9602 237.5,34.5C 242.568,36.1823 247.568,38.0157 252.5,40C 258.113,46.374 257.613,52.2074 251,57.5C 251.497,61.8944 249.664,64.2277 245.5,64.5C 245.5,62.5 245.5,60.5 245.5,58.5C 244.5,58.5 243.5,58.5 242.5,58.5C 242.66,60.1992 242.494,61.8659 242,63.5C 240.951,64.5171 239.784,64.6838 238.5,64C 237.887,61.8526 237.221,59.686 236.5,57.5C 233.059,56.3929 231.059,54.0596 230.5,50.5C 230.434,48.7336 231.268,47.7336 233,47.5C 234.731,49.3173 236.565,51.1507 238.5,53C 241.833,53.6667 245.167,53.6667 248.5,53C 251.451,50.916 252.117,48.2493 250.5,45C 244.028,42.736 237.861,39.9027 232,36.5C 230.723,32.9031 230.39,29.2364 231,25.5C 231.973,23.36 233.473,21.6933 235.5,20.5C 236.275,18.1568 236.942,15.8234 237.5,13.5 Z"/></g>
<g><path style="opacity:0.991" fill="#f58f34" d="M 318.5,38.5 C 336.435,35.8905 350.601,41.8905 361,56.5C 371.712,78.4771 367.545,96.9771 348.5,112C 327.85,122.191 310.017,118.691 295,101.5C 284.305,83.8077 285.305,66.8077 298,50.5C 304.058,45.0586 310.891,41.0586 318.5,38.5 Z"/></g>
<g><path style="opacity:1" fill="#f9ba34" d="M 318.5,48.5 C 335.748,45.7068 348.248,52.0402 356,67.5C 360.383,84.7098 354.883,97.5431 339.5,106C 322.345,111.839 309.178,107.005 300,91.5C 293.092,71.3321 299.259,56.9987 318.5,48.5 Z"/></g>
<g><path style="opacity:1" fill="#f69134" d="M 321.5,52.5 C 322.675,52.281 323.675,52.6143 324.5,53.5C 324.977,54.931 325.643,56.2643 326.5,57.5C 330.409,50.677 332.909,51.3436 334,59.5C 338.427,61.8783 339.927,65.3783 338.5,70C 337.552,70.4828 336.552,70.6495 335.5,70.5C 335.099,66.9302 333.099,64.7636 329.5,64C 321.512,61.6591 318.345,64.4925 320,72.5C 324.967,75.0396 330.133,77.2063 335.5,79C 342.377,85.2389 342.044,91.0722 334.5,96.5C 333.779,98.686 333.113,100.853 332.5,103C 331.216,103.684 330.049,103.517 329,102.5C 328.099,95.9365 326.932,95.9365 325.5,102.5C 323.994,103.747 322.494,103.747 321,102.5C 320.808,100.423 320.308,98.4233 319.5,96.5C 315.482,94.6741 313.982,91.6741 315,87.5C 315.561,86.9781 316.228,86.6448 317,86.5C 318.611,88.2096 320.111,90.0429 321.5,92C 325.167,92.6667 328.833,92.6667 332.5,92C 336.5,89 336.5,86 332.5,83C 327.833,81.3333 323.167,79.6667 318.5,78C 314.695,73.9089 313.528,69.0755 315,63.5C 316.351,61.981 317.851,60.6477 319.5,59.5C 320.275,57.1568 320.942,54.8234 321.5,52.5 Z"/></g>
<g><path style="opacity:0.987" fill="#f58f34" d="M 304.5,167.5 C 300.5,173.5 295.5,178.5 289.5,182.5C 280.198,186.242 270.531,187.409 260.5,186C 257.242,184.533 253.908,183.367 250.5,182.5C 244.462,177.463 239.129,171.797 234.5,165.5C 225.136,138.74 233.469,119.907 259.5,109C 282.654,105.159 298.821,113.992 308,135.5C 310.805,146.661 309.638,157.328 304.5,167.5 Z"/></g>
<g><path style="opacity:1" fill="#f9b934" d="M 263.5,117.5 C 290.776,117.271 302.61,130.604 299,157.5C 290.2,176.145 276.033,181.979 256.5,175C 241.523,165.609 236.69,152.443 242,135.5C 246.948,126.708 254.114,120.708 263.5,117.5 Z"/></g>
<g><path style="opacity:1" fill="#f69134" d="M 263.5,122.5 C 264.833,122.5 266.167,122.5 267.5,122.5C 267.5,124.167 267.5,125.833 267.5,127.5C 268.5,127.5 269.5,127.5 270.5,127.5C 269.833,123.5 271.5,121.833 275.5,122.5C 275.338,124.527 275.505,126.527 276,128.5C 280.74,130.647 282.907,134.314 282.5,139.5C 278.926,140.092 276.926,138.592 276.5,135C 271.762,131.633 267.262,131.799 263,135.5C 262.231,138.099 262.398,140.599 263.5,143C 268.977,144.604 274.311,146.604 279.5,149C 285.247,155.692 284.414,161.525 277,166.5C 276.667,168.5 276.333,170.5 276,172.5C 274.667,173.833 273.333,173.833 272,172.5C 271.506,170.866 271.34,169.199 271.5,167.5C 270.5,167.5 269.5,167.5 268.5,167.5C 268.66,169.199 268.494,170.866 268,172.5C 266.286,173.925 264.953,173.592 264,171.5C 263.505,169.527 263.338,167.527 263.5,165.5C 258.396,164.709 256.396,161.709 257.5,156.5C 261.074,155.908 263.074,157.408 263.5,161C 267.942,163.149 272.276,162.983 276.5,160.5C 279.283,156.991 278.616,154.157 274.5,152C 269.711,150.637 265.044,148.971 260.5,147C 259.299,146.097 258.465,144.931 258,143.5C 257.333,139.833 257.333,136.167 258,132.5C 259.378,130.787 261.045,129.453 263,128.5C 263.495,126.527 263.662,124.527 263.5,122.5 Z"/></g>
<g><path style="opacity:0.999" fill="#f6928d" d="M 234.5,165.5 C 239.129,171.797 244.462,177.463 250.5,182.5C 239.358,182.948 228.358,184.448 217.5,187C 217.043,187.414 216.709,187.914 216.5,188.5C 217.64,191.923 218.974,195.256 220.5,198.5C 236.389,194.428 252.556,192.761 269,193.5C 286.696,193.243 304.196,194.91 321.5,198.5C 321.768,195.26 322.434,192.094 323.5,189C 323.167,188.5 322.833,188 322.5,187.5C 311.657,184.86 300.657,183.193 289.5,182.5C 295.5,178.5 300.5,173.5 304.5,167.5C 335.126,172.872 363.293,184.205 389,201.5C 408.548,189.977 429.381,181.643 451.5,176.5C 456.318,177.49 458.818,180.49 459,185.5C 460.85,202.151 460.85,218.817 459,235.5C 457.4,250.197 455.567,264.863 453.5,279.5C 456.642,291.404 459.476,303.404 462,315.5C 474.157,322.828 486.657,329.494 499.5,335.5C 499.5,361.5 499.5,387.5 499.5,413.5C 423.043,422.357 347.043,419.19 271.5,404C 217.11,393.132 168.444,370.466 125.5,336C 106.622,318.98 90.6224,299.814 77.5,278.5C 98.6792,230.823 133.679,197.656 182.5,179C 199.356,172.619 216.689,168.119 234.5,165.5 Z"/></g>
<g><path style="opacity:1" fill="#cd4b4c" d="M 250.5,182.5 C 253.908,183.367 257.242,184.533 260.5,186C 270.531,187.409 280.198,186.242 289.5,182.5C 300.657,183.193 311.657,184.86 322.5,187.5C 322.833,188 323.167,188.5 323.5,189C 322.434,192.094 321.768,195.26 321.5,198.5C 304.196,194.91 286.696,193.243 269,193.5C 252.556,192.761 236.389,194.428 220.5,198.5C 218.974,195.256 217.64,191.923 216.5,188.5C 216.709,187.914 217.043,187.414 217.5,187C 228.358,184.448 239.358,182.948 250.5,182.5 Z"/></g>
<g><path style="opacity:1" fill="#f9b98a" d="M 449.5,205.5 C 448.278,225.703 446.112,246.036 443,266.5C 435.252,255.338 427.752,244.005 420.5,232.5C 430.488,223.845 440.155,214.845 449.5,205.5 Z"/></g>
<g><path style="opacity:0.98" fill="#f6928d" d="M 67.5,311.5 C 68.0614,312.908 68.3948,314.408 68.5,316C 67.9668,322.997 67.3001,329.83 66.5,336.5C 66.6602,334.801 66.4935,333.134 66,331.5C 62.3579,330.037 58.8579,328.203 55.5,326C 51.311,321.779 47.4777,317.279 44,312.5C 21.0633,316.945 6.22994,307.945 -0.5,285.5C -0.5,283.833 -0.5,282.167 -0.5,280.5C 4.08592,287.913 10.4193,293.413 18.5,297C 24.31,299.122 29.9767,298.789 35.5,296C 27.2292,281.937 26.3959,267.437 33,252.5C 40.7636,240.769 50.9303,238.269 63.5,245C 66.7621,247.592 69.2621,250.759 71,254.5C 72.545,264.274 71.2117,273.607 67,282.5C 63.8167,288.343 60.65,294.177 57.5,300C 59.2514,305.249 62.5848,309.082 67.5,311.5 Z M 49.5,252.5 C 56.5395,252.371 60.2062,255.871 60.5,263C 58.2669,273.967 53.2669,283.467 45.5,291.5C 42.9581,289.083 41.4581,286.083 41,282.5C 38.9921,270.992 41.8254,260.992 49.5,252.5 Z"/></g>
<g><path style="opacity:1" fill="#ef8484" d="M 77.5,278.5 C 90.6224,299.814 106.622,318.98 125.5,336C 168.444,370.466 217.11,393.132 271.5,404C 347.043,419.19 423.043,422.357 499.5,413.5C 499.5,417.167 499.5,420.833 499.5,424.5C 487.38,432.895 474.38,439.728 460.5,445C 442.636,451.676 424.636,457.843 406.5,463.5C 402.14,464.007 397.807,464.673 393.5,465.5C 391.422,476.893 389.088,488.226 386.5,499.5C 303.5,499.5 220.5,499.5 137.5,499.5C 134.681,486.572 132.181,473.572 130,460.5C 97.9903,435.156 77.6569,402.49 69,362.5C 67.5071,353.891 66.6738,345.225 66.5,336.5C 67.3001,329.83 67.9668,322.997 68.5,316C 68.3948,314.408 68.0614,312.908 67.5,311.5C 69.9933,300.345 73.3266,289.345 77.5,278.5 Z"/></g>
<g><path style="opacity:1" fill="#683233" d="M 432.5,299.5 C 441.156,300.328 445.49,305.161 445.5,314C 446.368,322.458 442.868,327.958 435,330.5C 430.716,328.882 427.716,325.882 426,321.5C 423.718,312.728 425.884,305.394 432.5,299.5 Z"/></g>
<g><path style="opacity:1" fill="#e1666c" d="M 406.5,463.5 C 404.678,475.607 402.345,487.607 399.5,499.5C 395.167,499.5 390.833,499.5 386.5,499.5C 389.088,488.226 391.422,476.893 393.5,465.5C 397.807,464.673 402.14,464.007 406.5,463.5 Z"/></g>
</svg>
